<svg width="34" height="23" viewBox="0 0 34 23" fill="none" xmlns="http://www.w3.org/2000/svg">
<path d="M30.3597 22.6728H22.3377V16.3862H18.7546C17.2304 20.1896 13.9414 22.6728 10.3048 22.6728C5.14397 22.6728 0.945801 17.7378 0.945801 11.6712C0.945801 5.60466 5.14397 0.669678 10.3048 0.669678C13.9414 0.669678 17.217 3.15289 18.7546 6.95628H33.0337V16.3862H30.3597V22.6728ZM25.0117 19.5295H27.6857V13.2429H30.3597V10.0996H16.9095L16.602 9.04658C15.6661 5.91899 13.1258 3.81298 10.3048 3.81298C6.61466 3.81298 3.61979 7.33348 3.61979 11.6712C3.61979 16.009 6.61466 19.5295 10.3048 19.5295C13.1258 19.5295 15.6661 17.4235 16.602 14.2959L16.9095 13.2429H25.0117V19.5295ZM10.3048 16.3862C8.09873 16.3862 6.29378 14.2645 6.29378 11.6712C6.29378 9.07801 8.09873 6.95628 10.3048 6.95628C12.5108 6.95628 14.3158 9.07801 14.3158 11.6712C14.3158 14.2645 12.5108 16.3862 10.3048 16.3862ZM10.3048 10.0996C9.56942 10.0996 8.96778 10.8068 8.96778 11.6712C8.96778 12.5356 9.56942 13.2429 10.3048 13.2429C11.0401 13.2429 11.6418 12.5356 11.6418 11.6712C11.6418 10.8068 11.0401 10.0996 10.3048 10.0996Z" fill="#858585"/>
</svg>
