<svg width="36" height="35" viewBox="0 0 36 35" fill="none" xmlns="http://www.w3.org/2000/svg">
<path d="M9.46905 31.8567C8.68774 31.8567 8.01913 31.5795 7.46322 31.025C6.90636 30.4696 6.62793 29.8023 6.62793 29.023V14.8543C6.62793 14.075 6.90636 13.4077 7.46322 12.8523C8.01913 12.2978 8.68774 12.0206 9.46905 12.0206H10.8896V9.18684C10.8896 7.22683 11.5824 5.55588 12.9679 4.17396C14.3525 2.79298 16.0273 2.1025 17.9924 2.1025C19.9575 2.1025 21.6328 2.79298 23.0183 4.17396C24.4029 5.55588 25.0952 7.22683 25.0952 9.18684V12.0206H26.5157C27.2971 12.0206 27.9661 12.2978 28.523 12.8523C29.0789 13.4077 29.3569 14.075 29.3569 14.8543V29.023C29.3569 29.8023 29.0789 30.4696 28.523 31.025C27.9661 31.5795 27.2971 31.8567 26.5157 31.8567H9.46905ZM9.46905 29.023H26.5157V14.8543H9.46905V29.023ZM17.9924 24.7724C18.7737 24.7724 19.4428 24.4951 19.9996 23.9407C20.5556 23.3853 20.8335 22.7179 20.8335 21.9386C20.8335 21.1594 20.5556 20.492 19.9996 19.9366C19.4428 19.3821 18.7737 19.1049 17.9924 19.1049C17.2111 19.1049 16.5425 19.3821 15.9866 19.9366C15.4297 20.492 15.1513 21.1594 15.1513 21.9386C15.1513 22.7179 15.4297 23.3853 15.9866 23.9407C16.5425 24.4951 17.2111 24.7724 17.9924 24.7724ZM13.7307 12.0206H22.2541V9.18684C22.2541 8.00611 21.8397 7.0025 21.0111 6.17599C20.1824 5.34949 19.1762 4.93623 17.9924 4.93623C16.8086 4.93623 15.8024 5.34949 14.9737 6.17599C14.1451 7.0025 13.7307 8.00611 13.7307 9.18684V12.0206ZM9.46905 29.023V14.8543V29.023Z" fill="#858585"/>
</svg>
